<mxfile host="Electron" agent="Mozilla/5.0 (Windows NT 10.0; Win64; x64) AppleWebKit/537.36 (KHTML, like Gecko) draw.io/27.0.9 Chrome/134.0.6998.205 Electron/35.4.0 Safari/537.36" version="27.0.9">
  <diagram name="Page-1" id="zLwfZMLRcO3uAaGRWkhB">
    <mxGraphModel dx="214" dy="1311" grid="1" gridSize="1" guides="1" tooltips="1" connect="1" arrows="1" fold="1" page="1" pageScale="1" pageWidth="827" pageHeight="1169" math="0" shadow="0">
      <root>
        <mxCell id="0" />
        <mxCell id="1" parent="0" />
        <mxCell id="GTpkvmiNxaV79-3oLBid-30" value="&lt;font style=&quot;font-size: 44px; color: rgb(255, 255, 255);&quot;&gt;&lt;b&gt;N&lt;/b&gt;&lt;/font&gt;" style="rounded=0;whiteSpace=wrap;html=1;strokeColor=#99CCFF;fillColor=#99CCFF;movable=1;resizable=1;rotatable=1;deletable=1;editable=1;locked=0;connectable=1;fontColor=#ffffff;" parent="1" vertex="1">
          <mxGeometry x="519" y="91" width="72" height="114" as="geometry" />
        </mxCell>
        <mxCell id="GTpkvmiNxaV79-3oLBid-28" value="&lt;font style=&quot;color: rgb(255, 255, 255);&quot;&gt;&lt;b style=&quot;&quot;&gt;&lt;span style=&quot;font-size: 44px;&quot;&gt;S&lt;/span&gt;&lt;font style=&quot;font-size: 22px;&quot;&gt;&amp;nbsp;&lt;/font&gt;&lt;/b&gt;&lt;/font&gt;" style="rounded=0;whiteSpace=wrap;html=1;strokeColor=#CDEB8B;fillColor=#CDEB8B;movable=1;resizable=1;rotatable=1;deletable=1;editable=1;locked=0;connectable=1;fontColor=#ffffff;" parent="1" vertex="1">
          <mxGeometry x="161" y="91" width="70" height="114" as="geometry" />
        </mxCell>
        <mxCell id="GTpkvmiNxaV79-3oLBid-26" value="&lt;font style=&quot;font-size: 44px; color: rgb(255, 255, 255);&quot;&gt;&lt;b&gt;S&lt;/b&gt;&lt;/font&gt;" style="rounded=0;whiteSpace=wrap;html=1;strokeColor=#CDEB8B;fillColor=#CDEB8B;movable=1;resizable=1;rotatable=1;deletable=1;editable=1;locked=0;connectable=1;fontColor=#ffffff;" parent="1" vertex="1">
          <mxGeometry x="400" y="91" width="72" height="114" as="geometry" />
        </mxCell>
        <mxCell id="GTpkvmiNxaV79-3oLBid-4" value="" style="rounded=0;whiteSpace=wrap;html=1;strokeColor=#CDEB8B;fillColor=#CDEB8B;movable=1;resizable=1;rotatable=1;deletable=1;editable=1;locked=0;connectable=1;fontColor=#ffffff;" parent="1" vertex="1">
          <mxGeometry x="637" y="91" width="2" height="114" as="geometry" />
        </mxCell>
        <mxCell id="yhztme63bc7gSXWzfOLG-96" value="&lt;font style=&quot;font-size: 44px; color: rgb(255, 255, 255);&quot;&gt;&lt;b&gt;N&lt;/b&gt;&lt;/font&gt;" style="rounded=0;whiteSpace=wrap;html=1;strokeColor=#99CCFF;fillColor=#99CCFF;movable=1;resizable=1;rotatable=1;deletable=1;editable=1;locked=0;connectable=1;fontColor=#ffffff;" parent="1" vertex="1">
          <mxGeometry x="279" y="91" width="72" height="114" as="geometry" />
        </mxCell>
        <mxCell id="ut4NBQotwpVBYfQdr2g3-7" value="&lt;span&gt;18&lt;/span&gt;" style="rounded=0;whiteSpace=wrap;html=1;rotation=0;strokeWidth=0;fillColor=#DA7557;fontStyle=1;fontColor=#FFFFFF;gradientColor=#AC5D45;gradientDirection=radial;strokeColor=#CB6D51;" parent="1" vertex="1">
          <mxGeometry x="161" y="335" width="18" height="80" as="geometry" />
        </mxCell>
        <mxCell id="ut4NBQotwpVBYfQdr2g3-14" value="19" style="rounded=0;whiteSpace=wrap;html=1;rotation=0;strokeWidth=0;fillColor=#DA7557;fontStyle=1;fontColor=#FFFFFF;gradientColor=#AC5D45;gradientDirection=radial;strokeColor=#CB6D51;" parent="1" vertex="1">
          <mxGeometry x="181" y="335" width="18" height="80" as="geometry" />
        </mxCell>
        <mxCell id="ut4NBQotwpVBYfQdr2g3-15" value="20" style="rounded=0;whiteSpace=wrap;html=1;rotation=0;strokeWidth=0;fillColor=#DA7557;fontStyle=1;fontColor=#FFFFFF;gradientColor=#AC5D45;gradientDirection=radial;strokeColor=#CB6D51;" parent="1" vertex="1">
          <mxGeometry x="201" y="335" width="18" height="80" as="geometry" />
        </mxCell>
        <mxCell id="ut4NBQotwpVBYfQdr2g3-16" value="21" style="rounded=0;whiteSpace=wrap;html=1;rotation=0;strokeWidth=0;fillColor=#DA7557;fontStyle=1;fontColor=#FFFFFF;gradientColor=#AC5D45;gradientDirection=radial;strokeColor=#CB6D51;" parent="1" vertex="1">
          <mxGeometry x="221" y="335" width="18" height="80" as="geometry" />
        </mxCell>
        <mxCell id="ut4NBQotwpVBYfQdr2g3-17" value="22" style="rounded=0;whiteSpace=wrap;html=1;rotation=0;strokeWidth=0;fillColor=#DA7557;fontStyle=1;fontColor=#FFFFFF;gradientColor=#AC5D45;gradientDirection=radial;strokeColor=#CB6D51;" parent="1" vertex="1">
          <mxGeometry x="241" y="335" width="18" height="80" as="geometry" />
        </mxCell>
        <mxCell id="ut4NBQotwpVBYfQdr2g3-18" value="23" style="rounded=0;whiteSpace=wrap;html=1;rotation=0;strokeWidth=0;fillColor=#DA7557;fontStyle=1;fontColor=#FFFFFF;gradientColor=#AC5D45;gradientDirection=radial;strokeColor=#CB6D51;" parent="1" vertex="1">
          <mxGeometry x="261" y="335" width="18" height="80" as="geometry" />
        </mxCell>
        <mxCell id="ut4NBQotwpVBYfQdr2g3-19" value="24" style="rounded=0;whiteSpace=wrap;html=1;rotation=0;strokeWidth=0;fillColor=#DA7557;fontStyle=1;fontColor=#FFFFFF;gradientColor=#AC5D45;gradientDirection=radial;strokeColor=#CB6D51;" parent="1" vertex="1">
          <mxGeometry x="281" y="335" width="18" height="80" as="geometry" />
        </mxCell>
        <mxCell id="ut4NBQotwpVBYfQdr2g3-20" value="1" style="rounded=0;whiteSpace=wrap;html=1;rotation=0;strokeWidth=0;fillColor=#DA7557;fontStyle=1;fontColor=#FFFFFF;gradientColor=#AC5D45;gradientDirection=radial;strokeColor=#CB6D51;" parent="1" vertex="1">
          <mxGeometry x="301" y="335" width="18" height="80" as="geometry" />
        </mxCell>
        <mxCell id="ut4NBQotwpVBYfQdr2g3-21" value="2" style="rounded=0;whiteSpace=wrap;html=1;rotation=0;strokeWidth=0;fillColor=#DA7557;fontStyle=1;fontColor=#FFFFFF;gradientColor=#AC5D45;gradientDirection=radial;strokeColor=#CB6D51;" parent="1" vertex="1">
          <mxGeometry x="321" y="335" width="18" height="80" as="geometry" />
        </mxCell>
        <mxCell id="ut4NBQotwpVBYfQdr2g3-22" value="3" style="rounded=0;whiteSpace=wrap;html=1;rotation=0;strokeWidth=0;fillColor=#DA7557;fontStyle=1;fontColor=#FFFFFF;gradientColor=#AC5D45;gradientDirection=radial;strokeColor=#CB6D51;" parent="1" vertex="1">
          <mxGeometry x="341" y="335" width="18" height="80" as="geometry" />
        </mxCell>
        <mxCell id="ut4NBQotwpVBYfQdr2g3-23" value="4" style="rounded=0;whiteSpace=wrap;html=1;rotation=0;strokeWidth=0;fillColor=#DA7557;fontStyle=1;fontColor=#FFFFFF;gradientColor=#AC5D45;gradientDirection=radial;strokeColor=#CB6D51;" parent="1" vertex="1">
          <mxGeometry x="361" y="335" width="18" height="80" as="geometry" />
        </mxCell>
        <mxCell id="ut4NBQotwpVBYfQdr2g3-24" value="5" style="rounded=0;whiteSpace=wrap;html=1;rotation=0;strokeWidth=0;fillColor=#DA7557;fontStyle=1;fontColor=#FFFFFF;gradientColor=#AC5D45;gradientDirection=radial;strokeColor=#CB6D51;" parent="1" vertex="1">
          <mxGeometry x="381" y="335" width="18" height="80" as="geometry" />
        </mxCell>
        <mxCell id="ut4NBQotwpVBYfQdr2g3-25" value="6" style="rounded=0;whiteSpace=wrap;html=1;rotation=0;strokeWidth=0;fillColor=#DA7557;fontStyle=1;fontColor=#FFFFFF;gradientColor=#AC5D45;gradientDirection=radial;strokeColor=#CB6D51;" parent="1" vertex="1">
          <mxGeometry x="401" y="335" width="18" height="80" as="geometry" />
        </mxCell>
        <mxCell id="ut4NBQotwpVBYfQdr2g3-26" value="7" style="rounded=0;whiteSpace=wrap;html=1;rotation=0;strokeWidth=0;fillColor=#DA7557;fontStyle=1;fontColor=#FFFFFF;gradientColor=#AC5D45;gradientDirection=radial;strokeColor=#CB6D51;" parent="1" vertex="1">
          <mxGeometry x="421" y="335" width="18" height="80" as="geometry" />
        </mxCell>
        <mxCell id="ut4NBQotwpVBYfQdr2g3-27" value="8" style="rounded=0;whiteSpace=wrap;html=1;rotation=0;strokeWidth=0;fillColor=#DA7557;fontStyle=1;fontColor=#FFFFFF;gradientColor=#AC5D45;gradientDirection=radial;strokeColor=#CB6D51;" parent="1" vertex="1">
          <mxGeometry x="441" y="335" width="18" height="80" as="geometry" />
        </mxCell>
        <mxCell id="ut4NBQotwpVBYfQdr2g3-28" value="9" style="rounded=0;whiteSpace=wrap;html=1;rotation=0;strokeWidth=0;fillColor=#DA7557;fontStyle=1;fontColor=#FFFFFF;gradientColor=#AC5D45;gradientDirection=radial;strokeColor=#CB6D51;" parent="1" vertex="1">
          <mxGeometry x="461" y="335" width="18" height="80" as="geometry" />
        </mxCell>
        <mxCell id="ut4NBQotwpVBYfQdr2g3-29" value="10" style="rounded=0;whiteSpace=wrap;html=1;rotation=0;strokeWidth=0;fillColor=#DA7557;fontStyle=1;fontColor=#FFFFFF;gradientColor=#AC5D45;gradientDirection=radial;strokeColor=#CB6D51;" parent="1" vertex="1">
          <mxGeometry x="481" y="335" width="18" height="80" as="geometry" />
        </mxCell>
        <mxCell id="ut4NBQotwpVBYfQdr2g3-30" value="11" style="rounded=0;whiteSpace=wrap;html=1;rotation=0;strokeWidth=0;fillColor=#DA7557;fontStyle=1;fontColor=#FFFFFF;gradientColor=#AC5D45;gradientDirection=radial;strokeColor=#CB6D51;" parent="1" vertex="1">
          <mxGeometry x="501" y="335" width="18" height="80" as="geometry" />
        </mxCell>
        <mxCell id="ut4NBQotwpVBYfQdr2g3-31" value="12" style="rounded=0;whiteSpace=wrap;html=1;rotation=0;strokeWidth=0;fillColor=#DA7557;fontStyle=1;fontColor=#FFFFFF;gradientColor=#AC5D45;gradientDirection=radial;strokeColor=#CB6D51;" parent="1" vertex="1">
          <mxGeometry x="521" y="335" width="18" height="80" as="geometry" />
        </mxCell>
        <mxCell id="ut4NBQotwpVBYfQdr2g3-32" value="13" style="rounded=0;whiteSpace=wrap;html=1;rotation=0;strokeWidth=0;fillColor=#DA7557;fontStyle=1;fontColor=#FFFFFF;gradientColor=#AC5D45;gradientDirection=radial;strokeColor=#CB6D51;" parent="1" vertex="1">
          <mxGeometry x="541" y="335" width="18" height="80" as="geometry" />
        </mxCell>
        <mxCell id="ut4NBQotwpVBYfQdr2g3-33" value="14" style="rounded=0;whiteSpace=wrap;html=1;rotation=0;strokeWidth=0;fillColor=#DA7557;fontStyle=1;fontColor=#FFFFFF;gradientColor=#AC5D45;gradientDirection=radial;strokeColor=#CB6D51;" parent="1" vertex="1">
          <mxGeometry x="561" y="335" width="18" height="80" as="geometry" />
        </mxCell>
        <mxCell id="ut4NBQotwpVBYfQdr2g3-34" value="15" style="rounded=0;whiteSpace=wrap;html=1;rotation=0;strokeWidth=0;fillColor=#DA7557;fontStyle=1;fontColor=#FFFFFF;gradientColor=#AC5D45;gradientDirection=radial;strokeColor=#CB6D51;" parent="1" vertex="1">
          <mxGeometry x="581" y="335" width="18" height="80" as="geometry" />
        </mxCell>
        <mxCell id="ut4NBQotwpVBYfQdr2g3-35" value="16" style="rounded=0;whiteSpace=wrap;html=1;rotation=0;strokeWidth=0;fillColor=#DA7557;fontStyle=1;fontColor=#FFFFFF;gradientColor=#AC5D45;gradientDirection=radial;strokeColor=#CB6D51;" parent="1" vertex="1">
          <mxGeometry x="601" y="335" width="18" height="80" as="geometry" />
        </mxCell>
        <mxCell id="ut4NBQotwpVBYfQdr2g3-36" value="17" style="rounded=0;whiteSpace=wrap;html=1;rotation=0;strokeWidth=0;fillColor=#DA7557;fontStyle=1;fontColor=#FFFFFF;gradientColor=#AC5D45;gradientDirection=radial;strokeColor=#CB6D51;" parent="1" vertex="1">
          <mxGeometry x="621" y="335" width="18" height="80" as="geometry" />
        </mxCell>
        <mxCell id="yhztme63bc7gSXWzfOLG-24" value="" style="endArrow=none;html=1;rounded=1;exitX=0.5;exitY=0;exitDx=0;exitDy=0;curved=0;strokeWidth=5.1181;dashed=1;fillColor=#e51400;strokeColor=#B20000;movable=1;resizable=1;rotatable=1;deletable=1;editable=1;locked=0;connectable=1;" parent="1" source="ut4NBQotwpVBYfQdr2g3-31" edge="1">
          <mxGeometry width="50" height="50" relative="1" as="geometry">
            <mxPoint x="361" y="232" as="sourcePoint" />
            <mxPoint x="447" y="41" as="targetPoint" />
            <Array as="points">
              <mxPoint x="530" y="268" />
              <mxPoint x="487" y="219" />
              <mxPoint x="485" y="76" />
            </Array>
          </mxGeometry>
        </mxCell>
        <mxCell id="yhztme63bc7gSXWzfOLG-68" value="" style="endArrow=none;html=1;rounded=0;exitX=1;exitY=1;exitDx=0;exitDy=0;entryX=1;entryY=1;entryDx=0;entryDy=0;fillColor=#0050ef;strokeColor=#000000;dashed=1;strokeWidth=1.1810999999999998;dashPattern=1 2;" parent="1" source="ut4NBQotwpVBYfQdr2g3-36" edge="1">
          <mxGeometry width="50" height="50" relative="1" as="geometry">
            <mxPoint x="627" y="408" as="sourcePoint" />
            <mxPoint x="639.0000000000002" y="-6.821210263296962e-13" as="targetPoint" />
          </mxGeometry>
        </mxCell>
        <mxCell id="yhztme63bc7gSXWzfOLG-94" value="" style="endArrow=none;html=1;rounded=0;exitX=0;exitY=1;exitDx=0;exitDy=0;entryX=0;entryY=1;entryDx=0;entryDy=0;dashed=1;dashPattern=1 2;strokeColor=#000000;" parent="1" target="ut4NBQotwpVBYfQdr2g3-7" edge="1">
          <mxGeometry width="50" height="50" relative="1" as="geometry">
            <mxPoint x="161" y="-2.2737367544323206e-13" as="sourcePoint" />
            <mxPoint x="310" y="68" as="targetPoint" />
          </mxGeometry>
        </mxCell>
        <mxCell id="yhztme63bc7gSXWzfOLG-109" value="+" style="rounded=0;whiteSpace=wrap;html=1;rotation=0;strokeWidth=0;fillColor=#666666;fontStyle=1;fontColor=#FFFFFF;" parent="1" vertex="1">
          <mxGeometry x="366" y="355" width="18" height="41" as="geometry" />
        </mxCell>
        <mxCell id="yhztme63bc7gSXWzfOLG-110" value="-" style="rounded=0;whiteSpace=wrap;html=1;rotation=0;strokeWidth=0.3937;fillColor=#CCCCCC;fontStyle=1;fontColor=#FFFFFF;dashed=1;" parent="1" vertex="1">
          <mxGeometry x="486" y="355" width="18" height="41" as="geometry" />
        </mxCell>
        <mxCell id="yhztme63bc7gSXWzfOLG-111" value="+" style="rounded=0;whiteSpace=wrap;html=1;rotation=0;strokeWidth=0.3937;fillColor=#CCCCCC;fontStyle=1;fontColor=#FFFFFF;dashed=1;" parent="1" vertex="1">
          <mxGeometry x="606" y="355" width="18" height="41" as="geometry" />
        </mxCell>
        <mxCell id="yhztme63bc7gSXWzfOLG-112" value="-" style="rounded=0;whiteSpace=wrap;html=1;rotation=0;strokeWidth=0;fillColor=#666666;fontStyle=1;fontColor=#FFFFFF;" parent="1" vertex="1">
          <mxGeometry x="246" y="355" width="18" height="41" as="geometry" />
        </mxCell>
        <mxCell id="yhztme63bc7gSXWzfOLG-117" value="" style="endArrow=none;html=1;rounded=0;strokeWidth=1.9685;dashed=1;strokeColor=#82B366;" parent="1" edge="1">
          <mxGeometry width="50" height="50" relative="1" as="geometry">
            <mxPoint x="639" y="43" as="sourcePoint" />
            <mxPoint x="631" y="36" as="targetPoint" />
          </mxGeometry>
        </mxCell>
        <mxCell id="yhztme63bc7gSXWzfOLG-132" value="" style="endArrow=none;html=1;rounded=0;dashed=1;dashPattern=1 2;" parent="1" edge="1">
          <mxGeometry width="50" height="50" relative="1" as="geometry">
            <mxPoint x="375" y="91" as="sourcePoint" />
            <mxPoint x="375" y="-4" as="targetPoint" />
          </mxGeometry>
        </mxCell>
        <mxCell id="yhztme63bc7gSXWzfOLG-134" value="" style="endArrow=baseDash;startArrow=block;html=1;rounded=0;startFill=1;endFill=0;strokeWidth=1.9685;" parent="1" edge="1">
          <mxGeometry width="50" height="50" relative="1" as="geometry">
            <mxPoint x="595" y="11" as="sourcePoint" />
            <mxPoint x="485" y="11" as="targetPoint" />
          </mxGeometry>
        </mxCell>
        <mxCell id="yhztme63bc7gSXWzfOLG-135" value="&lt;font style=&quot;font-size: 20px;&quot; face=&quot;Times New Roman&quot;&gt;&lt;i style=&quot;&quot;&gt;y&lt;/i&gt;&lt;sub style=&quot;&quot;&gt;2&lt;i style=&quot;&quot;&gt;k&lt;/i&gt;&lt;/sub&gt;&lt;/font&gt;" style="edgeLabel;html=1;align=center;verticalAlign=bottom;resizable=0;points=[];labelPosition=center;verticalLabelPosition=top;" parent="yhztme63bc7gSXWzfOLG-134" vertex="1" connectable="0">
          <mxGeometry x="-0.0906" y="1" relative="1" as="geometry">
            <mxPoint x="-1" y="-2" as="offset" />
          </mxGeometry>
        </mxCell>
        <mxCell id="yhztme63bc7gSXWzfOLG-136" value="" style="endArrow=block;startArrow=baseDash;html=1;rounded=0;startFill=0;strokeWidth=1.9685;endFill=1;" parent="1" edge="1">
          <mxGeometry width="50" height="50" relative="1" as="geometry">
            <mxPoint x="375" y="11" as="sourcePoint" />
            <mxPoint x="485" y="11" as="targetPoint" />
          </mxGeometry>
        </mxCell>
        <mxCell id="yhztme63bc7gSXWzfOLG-137" value="&lt;font style=&quot;font-size: 20px;&quot; face=&quot;Times New Roman&quot;&gt;&lt;i style=&quot;&quot;&gt;y&lt;/i&gt;&lt;sub style=&quot;&quot;&gt;1&lt;i style=&quot;&quot;&gt;k&lt;/i&gt;&lt;/sub&gt;&lt;/font&gt;" style="edgeLabel;html=1;align=center;verticalAlign=bottom;resizable=0;points=[];labelPosition=center;verticalLabelPosition=top;" parent="yhztme63bc7gSXWzfOLG-136" vertex="1" connectable="0">
          <mxGeometry x="-0.0906" y="1" relative="1" as="geometry">
            <mxPoint as="offset" />
          </mxGeometry>
        </mxCell>
        <mxCell id="4DRHQ21KBb1_LRvGjq0p-29" value="" style="endArrow=block;startArrow=baseDash;html=1;rounded=0;startFill=0;strokeWidth=1.9685;endFill=1;" edge="1" parent="1">
          <mxGeometry width="50" height="50" relative="1" as="geometry">
            <mxPoint x="310" y="443" as="sourcePoint" />
            <mxPoint x="530" y="443" as="targetPoint" />
          </mxGeometry>
        </mxCell>
        <mxCell id="4DRHQ21KBb1_LRvGjq0p-30" value="&lt;font style=&quot;font-size: 20px;&quot; face=&quot;Times New Roman&quot;&gt;&lt;i style=&quot;&quot;&gt;y&lt;/i&gt;&lt;sub style=&quot;&quot;&gt;&lt;i style=&quot;&quot;&gt;c&lt;/i&gt;&lt;/sub&gt;&lt;/font&gt;" style="edgeLabel;html=1;align=center;verticalAlign=bottom;resizable=0;points=[];labelPosition=center;verticalLabelPosition=top;" vertex="1" connectable="0" parent="4DRHQ21KBb1_LRvGjq0p-29">
          <mxGeometry x="-0.0906" y="1" relative="1" as="geometry">
            <mxPoint x="5" y="36" as="offset" />
          </mxGeometry>
        </mxCell>
        <mxCell id="4DRHQ21KBb1_LRvGjq0p-31" value="" style="endArrow=none;html=1;rounded=0;exitX=0.5;exitY=1;exitDx=0;exitDy=0;dashed=1;dashPattern=1 2;" edge="1" parent="1" source="ut4NBQotwpVBYfQdr2g3-20">
          <mxGeometry width="50" height="50" relative="1" as="geometry">
            <mxPoint x="411" y="426" as="sourcePoint" />
            <mxPoint x="310" y="468" as="targetPoint" />
          </mxGeometry>
        </mxCell>
        <mxCell id="4DRHQ21KBb1_LRvGjq0p-32" value="" style="endArrow=none;html=1;rounded=0;exitX=0.5;exitY=1;exitDx=0;exitDy=0;dashed=1;dashPattern=1 2;" edge="1" parent="1">
          <mxGeometry width="50" height="50" relative="1" as="geometry">
            <mxPoint x="530" y="415" as="sourcePoint" />
            <mxPoint x="530" y="468" as="targetPoint" />
          </mxGeometry>
        </mxCell>
        <mxCell id="4DRHQ21KBb1_LRvGjq0p-118" value="" style="endArrow=none;html=1;rounded=1;curved=0;strokeWidth=3.937;fillColor=#e51400;strokeColor=#000000;" edge="1" parent="1">
          <mxGeometry width="50" height="50" relative="1" as="geometry">
            <mxPoint x="160" y="38" as="sourcePoint" />
            <mxPoint x="186" y="40" as="targetPoint" />
            <Array as="points">
              <mxPoint x="172" y="28" />
            </Array>
          </mxGeometry>
        </mxCell>
        <mxCell id="4DRHQ21KBb1_LRvGjq0p-119" value="" style="endArrow=none;html=1;rounded=1;exitX=0.5;exitY=0;exitDx=0;exitDy=0;curved=0;strokeWidth=3.937;fillColor=#e51400;strokeColor=#000000;movable=1;resizable=1;rotatable=1;deletable=1;editable=1;locked=0;connectable=1;dashed=1;" edge="1" parent="1">
          <mxGeometry width="50" height="50" relative="1" as="geometry">
            <mxPoint x="270" y="335" as="sourcePoint" />
            <mxPoint x="187" y="39" as="targetPoint" />
            <Array as="points">
              <mxPoint x="270" y="268" />
              <mxPoint x="229" y="220" />
              <mxPoint x="230" y="76" />
            </Array>
          </mxGeometry>
        </mxCell>
        <mxCell id="4DRHQ21KBb1_LRvGjq0p-122" value="" style="endArrow=none;html=1;rounded=1;exitX=0.5;exitY=0;exitDx=0;exitDy=0;curved=0;strokeWidth=1.9685;fillColor=#e51400;strokeColor=#000000;" edge="1" parent="1">
          <mxGeometry width="50" height="50" relative="1" as="geometry">
            <mxPoint x="270" y="336" as="sourcePoint" />
            <mxPoint x="406" y="41" as="targetPoint" />
            <Array as="points">
              <mxPoint x="270" y="269" />
              <mxPoint x="338" y="219" />
              <mxPoint x="338" y="75" />
              <mxPoint x="392" y="29" />
            </Array>
          </mxGeometry>
        </mxCell>
        <mxCell id="4DRHQ21KBb1_LRvGjq0p-123" value="" style="endArrow=none;html=1;rounded=1;exitX=0.5;exitY=0;exitDx=0;exitDy=0;curved=0;strokeWidth=1.9685;fillColor=#e51400;strokeColor=#000000;movable=1;resizable=1;rotatable=1;deletable=1;editable=1;locked=0;connectable=1;dashed=1;" edge="1" parent="1">
          <mxGeometry width="50" height="50" relative="1" as="geometry">
            <mxPoint x="490" y="336" as="sourcePoint" />
            <mxPoint x="406" y="41" as="targetPoint" />
            <Array as="points">
              <mxPoint x="490" y="269" />
              <mxPoint x="454" y="221" />
              <mxPoint x="453" y="77" />
            </Array>
          </mxGeometry>
        </mxCell>
        <mxCell id="4DRHQ21KBb1_LRvGjq0p-124" value="" style="endArrow=none;html=1;rounded=1;exitX=0.5;exitY=0;exitDx=0;exitDy=0;curved=0;strokeWidth=1.9685;fillColor=#e51400;strokeColor=#000000;" edge="1" parent="1">
          <mxGeometry width="50" height="50" relative="1" as="geometry">
            <mxPoint x="490" y="336" as="sourcePoint" />
            <mxPoint x="626" y="41" as="targetPoint" />
            <Array as="points">
              <mxPoint x="490" y="269" />
              <mxPoint x="558" y="219" />
              <mxPoint x="558" y="75" />
              <mxPoint x="612" y="29" />
            </Array>
          </mxGeometry>
        </mxCell>
        <mxCell id="4DRHQ21KBb1_LRvGjq0p-125" value="" style="endArrow=none;html=1;rounded=1;curved=0;strokeWidth=1.9685;fillColor=#e51400;strokeColor=#000000;movable=1;resizable=1;rotatable=1;deletable=1;editable=1;locked=0;connectable=1;dashed=1;" edge="1" parent="1">
          <mxGeometry width="50" height="50" relative="1" as="geometry">
            <mxPoint x="639" y="51" as="sourcePoint" />
            <mxPoint x="626" y="41" as="targetPoint" />
            <Array as="points">
              <mxPoint x="639" y="51" />
            </Array>
          </mxGeometry>
        </mxCell>
        <mxCell id="4DRHQ21KBb1_LRvGjq0p-126" value="" style="endArrow=none;html=1;rounded=1;exitX=0.5;exitY=0;exitDx=0;exitDy=0;curved=0;strokeWidth=1.9685;fillColor=#e51400;strokeColor=#000000;" edge="1" parent="1">
          <mxGeometry width="50" height="50" relative="1" as="geometry">
            <mxPoint x="250" y="336" as="sourcePoint" />
            <mxPoint x="386" y="41" as="targetPoint" />
            <Array as="points">
              <mxPoint x="250" y="269" />
              <mxPoint x="318" y="219" />
              <mxPoint x="318" y="75" />
              <mxPoint x="372" y="29" />
            </Array>
          </mxGeometry>
        </mxCell>
        <mxCell id="4DRHQ21KBb1_LRvGjq0p-127" value="" style="endArrow=none;html=1;rounded=1;exitX=0.5;exitY=0;exitDx=0;exitDy=0;curved=0;strokeWidth=1.9685;fillColor=#e51400;strokeColor=#000000;movable=1;resizable=1;rotatable=1;deletable=1;editable=1;locked=0;connectable=1;dashed=1;" edge="1" parent="1">
          <mxGeometry width="50" height="50" relative="1" as="geometry">
            <mxPoint x="470" y="336" as="sourcePoint" />
            <mxPoint x="386" y="41" as="targetPoint" />
            <Array as="points">
              <mxPoint x="470" y="269" />
              <mxPoint x="434" y="221" />
              <mxPoint x="433" y="77" />
            </Array>
          </mxGeometry>
        </mxCell>
        <mxCell id="4DRHQ21KBb1_LRvGjq0p-128" value="" style="endArrow=none;html=1;rounded=1;exitX=0.5;exitY=0;exitDx=0;exitDy=0;curved=0;strokeWidth=1.9685;fillColor=#e51400;strokeColor=#000000;" edge="1" parent="1">
          <mxGeometry width="50" height="50" relative="1" as="geometry">
            <mxPoint x="470" y="336" as="sourcePoint" />
            <mxPoint x="606" y="41" as="targetPoint" />
            <Array as="points">
              <mxPoint x="470" y="269" />
              <mxPoint x="538" y="219" />
              <mxPoint x="538" y="75" />
              <mxPoint x="592" y="29" />
            </Array>
          </mxGeometry>
        </mxCell>
        <mxCell id="4DRHQ21KBb1_LRvGjq0p-129" value="" style="endArrow=none;html=1;rounded=1;curved=0;strokeWidth=1.9685;fillColor=#e51400;strokeColor=#000000;movable=1;resizable=1;rotatable=1;deletable=1;editable=1;locked=0;connectable=1;dashed=1;" edge="1" parent="1">
          <mxGeometry width="50" height="50" relative="1" as="geometry">
            <mxPoint x="640" y="67" as="sourcePoint" />
            <mxPoint x="606" y="41" as="targetPoint" />
            <Array as="points">
              <mxPoint x="640" y="67" />
            </Array>
          </mxGeometry>
        </mxCell>
        <mxCell id="4DRHQ21KBb1_LRvGjq0p-130" value="" style="endArrow=none;html=1;rounded=1;exitX=0.5;exitY=0;exitDx=0;exitDy=0;curved=0;strokeWidth=1.9685;fillColor=#e51400;strokeColor=#000000;" edge="1" parent="1">
          <mxGeometry width="50" height="50" relative="1" as="geometry">
            <mxPoint x="210" y="336" as="sourcePoint" />
            <mxPoint x="346" y="41" as="targetPoint" />
            <Array as="points">
              <mxPoint x="210" y="269" />
              <mxPoint x="278" y="219" />
              <mxPoint x="278" y="75" />
              <mxPoint x="332" y="29" />
            </Array>
          </mxGeometry>
        </mxCell>
        <mxCell id="4DRHQ21KBb1_LRvGjq0p-131" value="" style="endArrow=none;html=1;rounded=1;exitX=0.5;exitY=0;exitDx=0;exitDy=0;curved=0;strokeWidth=1.9685;fillColor=#e51400;strokeColor=#000000;movable=1;resizable=1;rotatable=1;deletable=1;editable=1;locked=0;connectable=1;dashed=1;" edge="1" parent="1">
          <mxGeometry width="50" height="50" relative="1" as="geometry">
            <mxPoint x="430" y="336" as="sourcePoint" />
            <mxPoint x="346" y="41" as="targetPoint" />
            <Array as="points">
              <mxPoint x="430" y="269" />
              <mxPoint x="394" y="221" />
              <mxPoint x="393" y="77" />
            </Array>
          </mxGeometry>
        </mxCell>
        <mxCell id="4DRHQ21KBb1_LRvGjq0p-132" value="" style="endArrow=none;html=1;rounded=1;exitX=0.5;exitY=0;exitDx=0;exitDy=0;curved=0;strokeWidth=1.9685;fillColor=#e51400;strokeColor=#000000;targetPerimeterSpacing=-1.9685;" edge="1" parent="1">
          <mxGeometry width="50" height="50" relative="1" as="geometry">
            <mxPoint x="430" y="336" as="sourcePoint" />
            <mxPoint x="566" y="41" as="targetPoint" />
            <Array as="points">
              <mxPoint x="430" y="269" />
              <mxPoint x="498" y="219" />
              <mxPoint x="498" y="75" />
              <mxPoint x="552" y="29" />
            </Array>
          </mxGeometry>
        </mxCell>
        <mxCell id="4DRHQ21KBb1_LRvGjq0p-133" value="" style="endArrow=none;html=1;rounded=1;curved=0;strokeWidth=1.9685;fillColor=#e51400;strokeColor=#000000;movable=1;resizable=1;rotatable=1;deletable=1;editable=1;locked=0;connectable=1;dashed=1;targetPerimeterSpacing=-1.9685;" edge="1" parent="1">
          <mxGeometry width="50" height="50" relative="1" as="geometry">
            <mxPoint x="640" y="257" as="sourcePoint" />
            <mxPoint x="566" y="41" as="targetPoint" />
            <Array as="points">
              <mxPoint x="640" y="257" />
              <mxPoint x="614" y="221" />
              <mxPoint x="613" y="77" />
            </Array>
          </mxGeometry>
        </mxCell>
        <mxCell id="4DRHQ21KBb1_LRvGjq0p-135" value="" style="endArrow=none;html=1;rounded=1;exitX=0.5;exitY=0;exitDx=0;exitDy=0;curved=0;strokeWidth=1.9685;fillColor=#f0a30a;strokeColor=#BD7000;movable=1;resizable=1;rotatable=1;deletable=1;editable=1;locked=0;connectable=1;dashed=1;" edge="1" parent="1">
          <mxGeometry width="50" height="50" relative="1" as="geometry">
            <mxPoint x="390" y="336" as="sourcePoint" />
            <mxPoint x="306" y="41" as="targetPoint" />
            <Array as="points">
              <mxPoint x="390" y="269" />
              <mxPoint x="354" y="221" />
              <mxPoint x="353" y="77" />
            </Array>
          </mxGeometry>
        </mxCell>
        <mxCell id="4DRHQ21KBb1_LRvGjq0p-137" value="" style="endArrow=none;html=1;rounded=1;exitX=0.5;exitY=0;exitDx=0;exitDy=0;curved=0;strokeWidth=1.9685;fillColor=#f0a30a;strokeColor=#BD7000;movable=1;resizable=1;rotatable=1;deletable=1;editable=1;locked=0;connectable=1;dashed=1;" edge="1" parent="1">
          <mxGeometry width="50" height="50" relative="1" as="geometry">
            <mxPoint x="610" y="336" as="sourcePoint" />
            <mxPoint x="526" y="41" as="targetPoint" />
            <Array as="points">
              <mxPoint x="610" y="269" />
              <mxPoint x="574" y="221" />
              <mxPoint x="573" y="77" />
            </Array>
          </mxGeometry>
        </mxCell>
        <mxCell id="4DRHQ21KBb1_LRvGjq0p-138" value="" style="endArrow=none;html=1;rounded=1;exitX=0.5;exitY=0;exitDx=0;exitDy=0;curved=0;strokeWidth=1.9685;fillColor=#d80073;strokeColor=#000000;" edge="1" parent="1">
          <mxGeometry width="50" height="50" relative="1" as="geometry">
            <mxPoint x="610" y="336" as="sourcePoint" />
            <mxPoint x="640" y="247" as="targetPoint" />
            <Array as="points">
              <mxPoint x="610" y="269" />
            </Array>
          </mxGeometry>
        </mxCell>
        <mxCell id="4DRHQ21KBb1_LRvGjq0p-140" value="" style="endArrow=none;html=1;rounded=1;exitX=0.5;exitY=0;exitDx=0;exitDy=0;curved=0;strokeWidth=1.9685;fillColor=#e51400;strokeColor=#000000;" edge="1" parent="1">
          <mxGeometry width="50" height="50" relative="1" as="geometry">
            <mxPoint x="350" y="336" as="sourcePoint" />
            <mxPoint x="486" y="41" as="targetPoint" />
            <Array as="points">
              <mxPoint x="350" y="269" />
              <mxPoint x="418" y="219" />
              <mxPoint x="418" y="75" />
              <mxPoint x="472" y="29" />
            </Array>
          </mxGeometry>
        </mxCell>
        <mxCell id="4DRHQ21KBb1_LRvGjq0p-141" value="" style="endArrow=none;html=1;rounded=1;exitX=0.5;exitY=0;exitDx=0;exitDy=0;curved=0;strokeWidth=1.9685;fillColor=#e51400;strokeColor=#000000;movable=1;resizable=1;rotatable=1;deletable=1;editable=1;locked=0;connectable=1;dashed=1;" edge="1" parent="1">
          <mxGeometry width="50" height="50" relative="1" as="geometry">
            <mxPoint x="570" y="336" as="sourcePoint" />
            <mxPoint x="486" y="41" as="targetPoint" />
            <Array as="points">
              <mxPoint x="570" y="269" />
              <mxPoint x="534" y="221" />
              <mxPoint x="533" y="77" />
            </Array>
          </mxGeometry>
        </mxCell>
        <mxCell id="4DRHQ21KBb1_LRvGjq0p-142" value="" style="endArrow=none;html=1;rounded=1;exitX=0.5;exitY=0;exitDx=0;exitDy=0;curved=0;strokeWidth=1.9685;fillColor=#e51400;strokeColor=#000000;" edge="1" parent="1">
          <mxGeometry width="50" height="50" relative="1" as="geometry">
            <mxPoint x="570" y="336" as="sourcePoint" />
            <mxPoint x="640" y="73" as="targetPoint" />
            <Array as="points">
              <mxPoint x="570" y="269" />
              <mxPoint x="638" y="219" />
              <mxPoint x="638" y="75" />
            </Array>
          </mxGeometry>
        </mxCell>
        <mxCell id="4DRHQ21KBb1_LRvGjq0p-144" value="" style="endArrow=none;html=1;rounded=1;exitX=0.5;exitY=0;exitDx=0;exitDy=0;curved=0;strokeWidth=1.9685;fillColor=#e51400;strokeColor=#000000;movable=1;resizable=1;rotatable=1;deletable=1;editable=1;locked=0;connectable=1;dashed=1;" edge="1" parent="1">
          <mxGeometry width="50" height="50" relative="1" as="geometry">
            <mxPoint x="450" y="336" as="sourcePoint" />
            <mxPoint x="366" y="41" as="targetPoint" />
            <Array as="points">
              <mxPoint x="450" y="269" />
              <mxPoint x="414" y="221" />
              <mxPoint x="413" y="77" />
            </Array>
          </mxGeometry>
        </mxCell>
        <mxCell id="4DRHQ21KBb1_LRvGjq0p-145" value="" style="endArrow=none;html=1;rounded=1;exitX=0.5;exitY=0;exitDx=0;exitDy=0;curved=0;strokeWidth=1.9685;fillColor=#e51400;strokeColor=#000000;" edge="1" parent="1">
          <mxGeometry width="50" height="50" relative="1" as="geometry">
            <mxPoint x="230" y="336" as="sourcePoint" />
            <mxPoint x="366" y="41" as="targetPoint" />
            <Array as="points">
              <mxPoint x="230" y="269" />
              <mxPoint x="298" y="219" />
              <mxPoint x="298" y="75" />
              <mxPoint x="352" y="29" />
            </Array>
          </mxGeometry>
        </mxCell>
        <mxCell id="4DRHQ21KBb1_LRvGjq0p-146" value="" style="endArrow=none;html=1;rounded=1;curved=0;strokeWidth=1.9685;fillColor=#e51400;strokeColor=#000000;movable=1;resizable=1;rotatable=1;deletable=1;editable=1;locked=0;connectable=1;dashed=1;" edge="1" parent="1">
          <mxGeometry width="50" height="50" relative="1" as="geometry">
            <mxPoint x="641" y="230" as="sourcePoint" />
            <mxPoint x="586" y="41" as="targetPoint" />
            <Array as="points">
              <mxPoint x="641" y="230" />
              <mxPoint x="634" y="221" />
              <mxPoint x="633" y="77" />
            </Array>
          </mxGeometry>
        </mxCell>
        <mxCell id="4DRHQ21KBb1_LRvGjq0p-147" value="" style="endArrow=none;html=1;rounded=1;exitX=0.5;exitY=0;exitDx=0;exitDy=0;curved=0;strokeWidth=1.9685;fillColor=#e51400;strokeColor=#000000;" edge="1" parent="1">
          <mxGeometry width="50" height="50" relative="1" as="geometry">
            <mxPoint x="450" y="336" as="sourcePoint" />
            <mxPoint x="586" y="41" as="targetPoint" />
            <Array as="points">
              <mxPoint x="450" y="269" />
              <mxPoint x="518" y="219" />
              <mxPoint x="518" y="75" />
              <mxPoint x="572" y="29" />
            </Array>
          </mxGeometry>
        </mxCell>
        <mxCell id="4DRHQ21KBb1_LRvGjq0p-148" value="" style="endArrow=none;html=1;rounded=1;exitX=0.5;exitY=0;exitDx=0;exitDy=0;curved=0;strokeWidth=1.9685;fillColor=#0050ef;strokeColor=#001DBC;movable=1;resizable=1;rotatable=1;deletable=1;editable=1;locked=0;connectable=1;dashed=1;" edge="1" parent="1">
          <mxGeometry width="50" height="50" relative="1" as="geometry">
            <mxPoint x="410" y="336" as="sourcePoint" />
            <mxPoint x="326" y="41" as="targetPoint" />
            <Array as="points">
              <mxPoint x="410" y="269" />
              <mxPoint x="372" y="220" />
              <mxPoint x="372" y="77" />
            </Array>
          </mxGeometry>
        </mxCell>
        <mxCell id="4DRHQ21KBb1_LRvGjq0p-150" value="" style="endArrow=none;html=1;rounded=1;exitX=0.5;exitY=0;exitDx=0;exitDy=0;curved=0;strokeWidth=1.9685;fillColor=#0050ef;strokeColor=#001DBC;movable=1;resizable=1;rotatable=1;deletable=1;editable=1;locked=0;connectable=1;dashed=1;" edge="1" parent="1">
          <mxGeometry width="50" height="50" relative="1" as="geometry">
            <mxPoint x="630" y="336" as="sourcePoint" />
            <mxPoint x="546" y="41" as="targetPoint" />
            <Array as="points">
              <mxPoint x="630" y="269" />
              <mxPoint x="593" y="220" />
              <mxPoint x="593" y="77" />
            </Array>
          </mxGeometry>
        </mxCell>
        <mxCell id="4DRHQ21KBb1_LRvGjq0p-153" value="" style="endArrow=none;html=1;rounded=1;exitX=0.5;exitY=0;exitDx=0;exitDy=0;curved=0;strokeWidth=1.9685;fillColor=#e51400;strokeColor=#000000;" edge="1" parent="1">
          <mxGeometry width="50" height="50" relative="1" as="geometry">
            <mxPoint x="630" y="336" as="sourcePoint" />
            <mxPoint x="640" y="262" as="targetPoint" />
            <Array as="points">
              <mxPoint x="630" y="269" />
            </Array>
          </mxGeometry>
        </mxCell>
        <mxCell id="4DRHQ21KBb1_LRvGjq0p-154" value="" style="endArrow=none;html=1;rounded=1;exitX=0.5;exitY=0;exitDx=0;exitDy=0;curved=0;strokeWidth=1.9685;fillColor=#e51400;strokeColor=#000000;movable=1;resizable=1;rotatable=1;deletable=1;editable=1;locked=0;connectable=1;dashed=1;" edge="1" parent="1">
          <mxGeometry width="50" height="50" relative="1" as="geometry">
            <mxPoint x="590" y="336" as="sourcePoint" />
            <mxPoint x="506" y="41" as="targetPoint" />
            <Array as="points">
              <mxPoint x="590" y="269" />
              <mxPoint x="554" y="221" />
              <mxPoint x="553" y="77" />
            </Array>
          </mxGeometry>
        </mxCell>
        <mxCell id="4DRHQ21KBb1_LRvGjq0p-155" value="" style="endArrow=none;html=1;rounded=1;exitX=0.5;exitY=0;exitDx=0;exitDy=0;curved=0;strokeWidth=1.9685;fillColor=#e51400;strokeColor=#000000;" edge="1" parent="1">
          <mxGeometry width="50" height="50" relative="1" as="geometry">
            <mxPoint x="370" y="336" as="sourcePoint" />
            <mxPoint x="506" y="41" as="targetPoint" />
            <Array as="points">
              <mxPoint x="370" y="269" />
              <mxPoint x="438" y="219" />
              <mxPoint x="438" y="75" />
              <mxPoint x="492" y="29" />
            </Array>
          </mxGeometry>
        </mxCell>
        <mxCell id="4DRHQ21KBb1_LRvGjq0p-157" value="" style="endArrow=none;html=1;rounded=1;exitX=0.5;exitY=0;exitDx=0;exitDy=0;curved=0;strokeWidth=1.9685;fillColor=#e51400;strokeColor=#000000;" edge="1" parent="1">
          <mxGeometry width="50" height="50" relative="1" as="geometry">
            <mxPoint x="590" y="336" as="sourcePoint" />
            <mxPoint x="640" y="232" as="targetPoint" />
            <Array as="points">
              <mxPoint x="590" y="269" />
            </Array>
          </mxGeometry>
        </mxCell>
        <mxCell id="4DRHQ21KBb1_LRvGjq0p-158" value="" style="endArrow=none;html=1;rounded=1;exitX=0.5;exitY=0;exitDx=0;exitDy=0;curved=0;strokeWidth=1.9685;fillColor=#e51400;strokeColor=#000000;movable=1;resizable=1;rotatable=1;deletable=1;editable=1;locked=0;connectable=1;dashed=1;" edge="1" parent="1">
          <mxGeometry width="50" height="50" relative="1" as="geometry">
            <mxPoint x="550" y="336" as="sourcePoint" />
            <mxPoint x="466" y="41" as="targetPoint" />
            <Array as="points">
              <mxPoint x="550" y="269" />
              <mxPoint x="514" y="221" />
              <mxPoint x="513" y="77" />
            </Array>
          </mxGeometry>
        </mxCell>
        <mxCell id="4DRHQ21KBb1_LRvGjq0p-159" value="" style="endArrow=none;html=1;rounded=1;exitX=0.5;exitY=0;exitDx=0;exitDy=0;curved=0;strokeWidth=1.9685;fillColor=#e51400;strokeColor=#000000;" edge="1" parent="1">
          <mxGeometry width="50" height="50" relative="1" as="geometry">
            <mxPoint x="330" y="336" as="sourcePoint" />
            <mxPoint x="466" y="41" as="targetPoint" />
            <Array as="points">
              <mxPoint x="330" y="269" />
              <mxPoint x="398" y="219" />
              <mxPoint x="398" y="75" />
              <mxPoint x="452" y="29" />
            </Array>
          </mxGeometry>
        </mxCell>
        <mxCell id="4DRHQ21KBb1_LRvGjq0p-161" value="" style="endArrow=none;html=1;rounded=1;exitX=0.5;exitY=0;exitDx=0;exitDy=0;curved=0;strokeWidth=1.9685;fillColor=#e51400;strokeColor=#000000;" edge="1" parent="1">
          <mxGeometry width="50" height="50" relative="1" as="geometry">
            <mxPoint x="550" y="336" as="sourcePoint" />
            <mxPoint x="640" y="56" as="targetPoint" />
            <Array as="points">
              <mxPoint x="550" y="269" />
              <mxPoint x="618" y="219" />
              <mxPoint x="618" y="75" />
            </Array>
          </mxGeometry>
        </mxCell>
        <mxCell id="4DRHQ21KBb1_LRvGjq0p-162" value="" style="endArrow=none;html=1;rounded=1;exitX=0.5;exitY=0;exitDx=0;exitDy=0;curved=0;strokeWidth=1.9685;fillColor=#e51400;strokeColor=#000000;movable=1;resizable=1;rotatable=1;deletable=1;editable=1;locked=0;connectable=1;dashed=1;" edge="1" parent="1">
          <mxGeometry width="50" height="50" relative="1" as="geometry">
            <mxPoint x="510" y="336" as="sourcePoint" />
            <mxPoint x="426" y="41" as="targetPoint" />
            <Array as="points">
              <mxPoint x="510" y="269" />
              <mxPoint x="474" y="221" />
              <mxPoint x="473" y="77" />
            </Array>
          </mxGeometry>
        </mxCell>
        <mxCell id="4DRHQ21KBb1_LRvGjq0p-163" value="" style="endArrow=none;html=1;rounded=1;exitX=0.5;exitY=0;exitDx=0;exitDy=0;curved=0;strokeWidth=1.9685;fillColor=#e51400;strokeColor=#000000;" edge="1" parent="1">
          <mxGeometry width="50" height="50" relative="1" as="geometry">
            <mxPoint x="290" y="336" as="sourcePoint" />
            <mxPoint x="426" y="41" as="targetPoint" />
            <Array as="points">
              <mxPoint x="290" y="269" />
              <mxPoint x="358" y="219" />
              <mxPoint x="358" y="75" />
              <mxPoint x="412" y="29" />
            </Array>
          </mxGeometry>
        </mxCell>
        <mxCell id="4DRHQ21KBb1_LRvGjq0p-165" value="" style="endArrow=none;html=1;rounded=1;exitX=0.5;exitY=0;exitDx=0;exitDy=0;curved=0;strokeWidth=1.9685;fillColor=#e51400;strokeColor=#000000;" edge="1" parent="1">
          <mxGeometry width="50" height="50" relative="1" as="geometry">
            <mxPoint x="510" y="336" as="sourcePoint" />
            <mxPoint x="640" y="36" as="targetPoint" />
            <Array as="points">
              <mxPoint x="510" y="269" />
              <mxPoint x="578" y="219" />
              <mxPoint x="578" y="75" />
              <mxPoint x="632" y="29" />
            </Array>
          </mxGeometry>
        </mxCell>
        <mxCell id="4DRHQ21KBb1_LRvGjq0p-168" value="" style="endArrow=none;html=1;rounded=1;exitX=0.5;exitY=0;exitDx=0;exitDy=0;curved=0;strokeWidth=1.9685;fillColor=#e51400;strokeColor=#000000;movable=1;resizable=1;rotatable=1;deletable=1;editable=1;locked=0;connectable=1;dashed=1;" edge="1" parent="1">
          <mxGeometry width="50" height="50" relative="1" as="geometry">
            <mxPoint x="230" y="336" as="sourcePoint" />
            <mxPoint x="160" y="52" as="targetPoint" />
            <Array as="points">
              <mxPoint x="230" y="269" />
              <mxPoint x="194" y="221" />
              <mxPoint x="193" y="77" />
            </Array>
          </mxGeometry>
        </mxCell>
        <mxCell id="4DRHQ21KBb1_LRvGjq0p-169" value="" style="endArrow=none;html=1;rounded=1;exitX=0.5;exitY=0;exitDx=0;exitDy=0;curved=0;strokeWidth=1.9685;fillColor=#e51400;strokeColor=#000000;movable=1;resizable=1;rotatable=1;deletable=1;editable=1;locked=0;connectable=1;dashed=1;" edge="1" parent="1">
          <mxGeometry width="50" height="50" relative="1" as="geometry">
            <mxPoint x="190" y="336" as="sourcePoint" />
            <mxPoint x="159" y="229" as="targetPoint" />
            <Array as="points">
              <mxPoint x="190" y="269" />
            </Array>
          </mxGeometry>
        </mxCell>
        <mxCell id="4DRHQ21KBb1_LRvGjq0p-170" value="" style="endArrow=none;html=1;rounded=1;exitX=0.5;exitY=0;exitDx=0;exitDy=0;curved=0;strokeWidth=1.9685;fillColor=#e51400;strokeColor=#000000;movable=1;resizable=1;rotatable=1;deletable=1;editable=1;locked=0;connectable=1;dashed=1;" edge="1" parent="1">
          <mxGeometry width="50" height="50" relative="1" as="geometry">
            <mxPoint x="370" y="336" as="sourcePoint" />
            <mxPoint x="286" y="41" as="targetPoint" />
            <Array as="points">
              <mxPoint x="370" y="269" />
              <mxPoint x="334" y="221" />
              <mxPoint x="333" y="77" />
            </Array>
          </mxGeometry>
        </mxCell>
        <mxCell id="4DRHQ21KBb1_LRvGjq0p-171" value="" style="endArrow=none;html=1;rounded=1;curved=0;strokeWidth=1.9685;fillColor=#e51400;strokeColor=#000000;" edge="1" parent="1">
          <mxGeometry width="50" height="50" relative="1" as="geometry">
            <mxPoint x="161" y="261" as="sourcePoint" />
            <mxPoint x="286" y="41" as="targetPoint" />
            <Array as="points">
              <mxPoint x="218" y="219" />
              <mxPoint x="218" y="75" />
              <mxPoint x="272" y="29" />
            </Array>
          </mxGeometry>
        </mxCell>
        <mxCell id="4DRHQ21KBb1_LRvGjq0p-172" value="" style="endArrow=none;html=1;rounded=1;curved=0;strokeWidth=1.9685;fillColor=#e51400;strokeColor=#000000;" edge="1" parent="1">
          <mxGeometry width="50" height="50" relative="1" as="geometry">
            <mxPoint x="160" y="232" as="sourcePoint" />
            <mxPoint x="246" y="41" as="targetPoint" />
            <Array as="points">
              <mxPoint x="178" y="219" />
              <mxPoint x="178" y="75" />
              <mxPoint x="232" y="29" />
            </Array>
          </mxGeometry>
        </mxCell>
        <mxCell id="4DRHQ21KBb1_LRvGjq0p-173" value="" style="endArrow=none;html=1;rounded=1;exitX=0.5;exitY=0;exitDx=0;exitDy=0;curved=0;strokeWidth=1.9685;fillColor=#e51400;strokeColor=#000000;movable=1;resizable=1;rotatable=1;deletable=1;editable=1;locked=0;connectable=1;dashed=1;" edge="1" parent="1">
          <mxGeometry width="50" height="50" relative="1" as="geometry">
            <mxPoint x="330" y="336" as="sourcePoint" />
            <mxPoint x="246" y="41" as="targetPoint" />
            <Array as="points">
              <mxPoint x="330" y="269" />
              <mxPoint x="294" y="221" />
              <mxPoint x="293" y="77" />
            </Array>
          </mxGeometry>
        </mxCell>
        <mxCell id="4DRHQ21KBb1_LRvGjq0p-174" value="" style="endArrow=none;html=1;rounded=1;curved=0;strokeWidth=1.9685;fillColor=#e51400;strokeColor=#000000;" edge="1" parent="1">
          <mxGeometry width="50" height="50" relative="1" as="geometry">
            <mxPoint x="160" y="56" as="sourcePoint" />
            <mxPoint x="206" y="41" as="targetPoint" />
            <Array as="points">
              <mxPoint x="192" y="29" />
            </Array>
          </mxGeometry>
        </mxCell>
        <mxCell id="4DRHQ21KBb1_LRvGjq0p-175" value="" style="endArrow=none;html=1;rounded=1;exitX=0.5;exitY=0;exitDx=0;exitDy=0;curved=0;strokeWidth=1.9685;fillColor=#e51400;strokeColor=#000000;movable=1;resizable=1;rotatable=1;deletable=1;editable=1;locked=0;connectable=1;dashed=1;" edge="1" parent="1">
          <mxGeometry width="50" height="50" relative="1" as="geometry">
            <mxPoint x="290" y="336" as="sourcePoint" />
            <mxPoint x="206" y="41" as="targetPoint" />
            <Array as="points">
              <mxPoint x="290" y="269" />
              <mxPoint x="254" y="221" />
              <mxPoint x="253" y="77" />
            </Array>
          </mxGeometry>
        </mxCell>
        <mxCell id="4DRHQ21KBb1_LRvGjq0p-176" value="" style="endArrow=none;html=1;rounded=1;exitX=0.5;exitY=0;exitDx=0;exitDy=0;curved=0;strokeWidth=1.9685;fillColor=#e51400;strokeColor=#000000;movable=1;resizable=1;rotatable=1;deletable=1;editable=1;locked=0;connectable=1;dashed=1;" edge="1" parent="1">
          <mxGeometry width="50" height="50" relative="1" as="geometry">
            <mxPoint x="250" y="336" as="sourcePoint" />
            <mxPoint x="161" y="37" as="targetPoint" />
            <Array as="points">
              <mxPoint x="250" y="269" />
              <mxPoint x="214" y="221" />
              <mxPoint x="213" y="77" />
            </Array>
          </mxGeometry>
        </mxCell>
        <mxCell id="4DRHQ21KBb1_LRvGjq0p-179" value="" style="endArrow=none;html=1;rounded=1;exitX=0.5;exitY=0;exitDx=0;exitDy=0;curved=0;strokeWidth=1.9685;fillColor=#e51400;strokeColor=#000000;movable=1;resizable=1;rotatable=1;deletable=1;editable=1;locked=0;connectable=1;dashed=1;" edge="1" parent="1">
          <mxGeometry width="50" height="50" relative="1" as="geometry">
            <mxPoint x="210" y="336" as="sourcePoint" />
            <mxPoint x="160" y="67" as="targetPoint" />
            <Array as="points">
              <mxPoint x="210" y="269" />
              <mxPoint x="174" y="221" />
              <mxPoint x="173" y="77" />
            </Array>
          </mxGeometry>
        </mxCell>
        <mxCell id="4DRHQ21KBb1_LRvGjq0p-180" value="" style="endArrow=none;html=1;rounded=1;exitX=0.5;exitY=0;exitDx=0;exitDy=0;curved=0;strokeWidth=1.9685;fillColor=#e51400;strokeColor=#000000;movable=1;resizable=1;rotatable=1;deletable=1;editable=1;locked=0;connectable=1;dashed=1;targetPerimeterSpacing=-1.9685;" edge="1" parent="1">
          <mxGeometry width="50" height="50" relative="1" as="geometry">
            <mxPoint x="170" y="336" as="sourcePoint" />
            <mxPoint x="159" y="255" as="targetPoint" />
            <Array as="points">
              <mxPoint x="170" y="269" />
            </Array>
          </mxGeometry>
        </mxCell>
        <mxCell id="4DRHQ21KBb1_LRvGjq0p-181" value="" style="endArrow=none;html=1;rounded=1;curved=0;strokeWidth=1.9685;fillColor=#d80073;strokeColor=#000000;" edge="1" parent="1">
          <mxGeometry width="50" height="50" relative="1" as="geometry">
            <mxPoint x="160" y="247" as="sourcePoint" />
            <mxPoint x="266" y="41" as="targetPoint" />
            <Array as="points">
              <mxPoint x="198" y="219" />
              <mxPoint x="198" y="75" />
              <mxPoint x="252" y="29" />
            </Array>
          </mxGeometry>
        </mxCell>
        <mxCell id="4DRHQ21KBb1_LRvGjq0p-182" value="" style="endArrow=none;html=1;rounded=1;exitX=0.5;exitY=0;exitDx=0;exitDy=0;curved=0;strokeWidth=1.9685;fillColor=#e51400;strokeColor=#000000;movable=1;resizable=1;rotatable=1;deletable=1;editable=1;locked=0;connectable=1;dashed=1;" edge="1" parent="1">
          <mxGeometry width="50" height="50" relative="1" as="geometry">
            <mxPoint x="350" y="336" as="sourcePoint" />
            <mxPoint x="266" y="41" as="targetPoint" />
            <Array as="points">
              <mxPoint x="350" y="269" />
              <mxPoint x="314" y="221" />
              <mxPoint x="313" y="77" />
            </Array>
          </mxGeometry>
        </mxCell>
        <mxCell id="4DRHQ21KBb1_LRvGjq0p-183" value="" style="endArrow=none;html=1;rounded=1;curved=0;strokeWidth=1.9685;fillColor=#e51400;strokeColor=#000000;" edge="1" parent="1">
          <mxGeometry width="50" height="50" relative="1" as="geometry">
            <mxPoint x="160" y="73" as="sourcePoint" />
            <mxPoint x="226" y="41" as="targetPoint" />
            <Array as="points">
              <mxPoint x="160" y="73" />
              <mxPoint x="212" y="29" />
            </Array>
          </mxGeometry>
        </mxCell>
        <mxCell id="4DRHQ21KBb1_LRvGjq0p-184" value="" style="endArrow=none;html=1;rounded=1;exitX=0.5;exitY=0;exitDx=0;exitDy=0;curved=0;strokeWidth=1.9685;fillColor=#e51400;strokeColor=#000000;movable=1;resizable=1;rotatable=1;deletable=1;editable=1;locked=0;connectable=1;dashed=1;" edge="1" parent="1">
          <mxGeometry width="50" height="50" relative="1" as="geometry">
            <mxPoint x="310" y="336" as="sourcePoint" />
            <mxPoint x="226" y="41" as="targetPoint" />
            <Array as="points">
              <mxPoint x="310" y="269" />
              <mxPoint x="274" y="221" />
              <mxPoint x="273" y="77" />
            </Array>
          </mxGeometry>
        </mxCell>
        <mxCell id="4DRHQ21KBb1_LRvGjq0p-185" value="" style="endArrow=none;html=1;rounded=0;dashed=1;dashPattern=1 2;" edge="1" parent="1">
          <mxGeometry width="50" height="50" relative="1" as="geometry">
            <mxPoint x="485" y="91" as="sourcePoint" />
            <mxPoint x="485" y="-4" as="targetPoint" />
          </mxGeometry>
        </mxCell>
        <mxCell id="4DRHQ21KBb1_LRvGjq0p-186" value="" style="endArrow=none;html=1;rounded=0;dashed=1;dashPattern=1 2;" edge="1" parent="1">
          <mxGeometry width="50" height="50" relative="1" as="geometry">
            <mxPoint x="595" y="91" as="sourcePoint" />
            <mxPoint x="595" y="-4" as="targetPoint" />
          </mxGeometry>
        </mxCell>
        <mxCell id="4DRHQ21KBb1_LRvGjq0p-134" value="" style="endArrow=none;html=1;rounded=1;exitX=0.5;exitY=0;exitDx=0;exitDy=0;curved=0;strokeWidth=1.9685;fillColor=#f0a30a;strokeColor=#BD7000;" edge="1" parent="1">
          <mxGeometry width="50" height="50" relative="1" as="geometry">
            <mxPoint x="170" y="336" as="sourcePoint" />
            <mxPoint x="306" y="41" as="targetPoint" />
            <Array as="points">
              <mxPoint x="170" y="269" />
              <mxPoint x="238" y="219" />
              <mxPoint x="238" y="75" />
              <mxPoint x="292" y="29" />
            </Array>
          </mxGeometry>
        </mxCell>
        <mxCell id="4DRHQ21KBb1_LRvGjq0p-149" value="" style="endArrow=none;html=1;rounded=1;exitX=0.5;exitY=0;exitDx=0;exitDy=0;curved=0;strokeWidth=1.9685;fillColor=#0050ef;strokeColor=#001DBC;" edge="1" parent="1">
          <mxGeometry width="50" height="50" relative="1" as="geometry">
            <mxPoint x="190" y="336" as="sourcePoint" />
            <mxPoint x="326" y="41" as="targetPoint" />
            <Array as="points">
              <mxPoint x="190" y="269" />
              <mxPoint x="258" y="219" />
              <mxPoint x="258" y="75" />
              <mxPoint x="312" y="29" />
            </Array>
          </mxGeometry>
        </mxCell>
        <mxCell id="4DRHQ21KBb1_LRvGjq0p-136" value="" style="endArrow=none;html=1;rounded=1;exitX=0.5;exitY=0;exitDx=0;exitDy=0;curved=0;strokeWidth=1.9685;fillColor=#f0a30a;strokeColor=#BD7000;" edge="1" parent="1">
          <mxGeometry width="50" height="50" relative="1" as="geometry">
            <mxPoint x="390" y="336" as="sourcePoint" />
            <mxPoint x="526" y="41" as="targetPoint" />
            <Array as="points">
              <mxPoint x="390" y="269" />
              <mxPoint x="458" y="219" />
              <mxPoint x="458" y="75" />
              <mxPoint x="512" y="29" />
            </Array>
          </mxGeometry>
        </mxCell>
        <mxCell id="4DRHQ21KBb1_LRvGjq0p-151" value="" style="endArrow=none;html=1;rounded=1;exitX=0.5;exitY=0;exitDx=0;exitDy=0;curved=0;strokeWidth=1.9685;fillColor=#0050ef;strokeColor=#001DBC;" edge="1" parent="1">
          <mxGeometry width="50" height="50" relative="1" as="geometry">
            <mxPoint x="410" y="336" as="sourcePoint" />
            <mxPoint x="546" y="41" as="targetPoint" />
            <Array as="points">
              <mxPoint x="410" y="269" />
              <mxPoint x="478" y="219" />
              <mxPoint x="478" y="75" />
              <mxPoint x="532" y="29" />
            </Array>
          </mxGeometry>
        </mxCell>
        <mxCell id="4DRHQ21KBb1_LRvGjq0p-33" value="" style="endArrow=none;html=1;rounded=1;exitX=0.5;exitY=0;exitDx=0;exitDy=0;curved=0;strokeWidth=3.937;fillColor=#e51400;strokeColor=#000000;" edge="1" parent="1">
          <mxGeometry width="50" height="50" relative="1" as="geometry">
            <mxPoint x="530" y="335" as="sourcePoint" />
            <mxPoint x="640" y="38" as="targetPoint" />
            <Array as="points">
              <mxPoint x="530" y="268" />
              <mxPoint x="595" y="220" />
              <mxPoint x="595" y="76" />
            </Array>
          </mxGeometry>
        </mxCell>
        <mxCell id="yhztme63bc7gSXWzfOLG-23" value="" style="endArrow=none;html=1;rounded=1;exitX=0.5;exitY=0;exitDx=0;exitDy=0;curved=0;strokeWidth=5.1181;fillColor=#e51400;strokeColor=#B20000;" parent="1" source="ut4NBQotwpVBYfQdr2g3-20" edge="1">
          <mxGeometry width="50" height="50" relative="1" as="geometry">
            <mxPoint x="281" y="253" as="sourcePoint" />
            <mxPoint x="446" y="40" as="targetPoint" />
            <Array as="points">
              <mxPoint x="310" y="268" />
              <mxPoint x="375" y="220" />
              <mxPoint x="375" y="76" />
              <mxPoint x="432" y="28" />
            </Array>
          </mxGeometry>
        </mxCell>
      </root>
    </mxGraphModel>
  </diagram>
</mxfile>
